<svg xmlns="http://www.w3.org/2000/svg" version="1.1" xmlns:xlink="http://www.w3.org/1999/xlink" xmlns:svgjs="http://svgjs.dev/svgjs" width="1000" height="1000" viewBox="0 0 1000 1000"><rect width="1000" height="1000" fill="#000000"></rect><g transform="matrix(0.7,0,0,0.7,149.57575757575756,282.1265587044535)"><svg viewBox="0 0 396 247" data-background-color="#ffffff" preserveAspectRatio="xMidYMid meet" height="623" width="1000" xmlns="http://www.w3.org/2000/svg" xmlns:xlink="http://www.w3.org/1999/xlink"><g id="tight-bounds" transform="matrix(1,0,0,1,0.2400000000000091,-0.09999999999999432)"><svg viewBox="0 0 395.52 247.2" height="247.2" width="395.52"><g><svg></svg></g><g><svg viewBox="0 0 395.52 247.2" height="247.2" width="395.52"><g transform="matrix(1,0,0,1,46.349999999999994,37.08)"><svg viewBox="0 0 302.82 173.04" height="173.04" width="302.82"><g><svg viewBox="0 0 302.82 173.04" height="173.04" width="302.82"><g><svg viewBox="0 0 302.82 173.04" height="173.04" width="302.82"><g><svg viewBox="0 0 302.82 173.04" height="173.04" width="302.82"><g id="textblocktransform"><svg viewBox="0 0 302.82 173.04" height="173.04" width="302.82" id="textblock"><g><svg viewBox="0 0 302.82 173.04" height="173.04" width="302.82"><g transform="matrix(1,0,0,1,0,0)"><svg width="302.82" viewBox="5.400000095367432 -33 57.75 33" height="173.04" data-palette-color="#9ac791"><path d="M28.5-33L28.5-29.25 9.4-29.25 9.4-18.6 24.3-18.6 24.3-14.85 9.4-14.85 9.4 0 5.4 0 5.4-33 28.5-33ZM35.9-33L46.55-33Q54.3-33 58.72-28.73 63.15-24.45 63.15-16.5L63.15-16.5Q63.15-8.55 58.72-4.28 54.3 0 46.55 0L46.55 0 35.9 0 35.9-33ZM39.9-3.75L46.95-3.75Q52.6-3.75 55.77-7.13 58.95-10.5 58.95-16.5L58.95-16.5Q58.95-22.5 55.77-25.88 52.6-29.25 46.95-29.25L46.95-29.25 39.9-29.25 39.9-3.75Z" opacity="1" transform="matrix(1,0,0,1,0,0)" fill="#ffffff" class="undefined-text-0" data-fill-palette-color="primary" id="text-0"></path></svg></g></svg></g></svg></g></svg></g></svg></g></svg></g></svg></g><g><path xmlns="http://www.w3.org/2000/svg" d="M0 247.2v-247.2h395.52v247.2zM379.915 231.595v-215.99h-364.31v215.99z" fill="#ffffff" fill-rule="nonzero" stroke="none" stroke-width="1" stroke-linecap="butt" stroke-linejoin="miter" stroke-miterlimit="10" stroke-dasharray="" stroke-dashoffset="0" font-family="none" font-weight="none" font-size="none" text-anchor="none" style="mix-blend-mode: normal" data-fill-palette-color="tertiary"></path></g></svg></g><defs></defs></svg><rect width="395.52" height="247.2" fill="none" stroke="none" visibility="hidden"></rect></g></svg></g></svg>